<svg width="32" height="21" viewBox="0 0 32 21" fill="none" xmlns="http://www.w3.org/2000/svg">
<path d="M16.6075 9.94498L16.4163 10.035H16.3263C16.2227 10.0813 16.1127 10.1116 16 10.125C15.9066 10.1367 15.8121 10.1367 15.7188 10.125H15.6287L15.4375 10.035L0.3625 0.29248C0.290475 0.564212 0.252683 0.843878 0.25 1.12498V16.875C0.25 17.7701 0.605579 18.6285 1.23851 19.2615C1.87145 19.8944 2.72989 20.25 3.625 20.25H28.375C29.2701 20.25 30.1286 19.8944 30.7615 19.2615C31.3944 18.6285 31.75 17.7701 31.75 16.875V1.12498C31.7473 0.843878 31.7095 0.564212 31.6375 0.29248L16.6075 9.94498Z" fill="#898787"/>
</svg>
