<svg width="696" height="203" viewBox="0 0 696 203" fill="none" xmlns="http://www.w3.org/2000/svg">
<path d="M685.449 2L684.387 2.62416C684.962 3.08103 685.567 3.49815 686.199 3.87254C727.787 31.284 757.778 73.0711 770.42 121.217C774.117 134.12 774.843 147.691 772.544 160.914C771.159 170.174 766.966 178.787 760.532 185.595C754.098 192.402 745.731 197.076 736.557 198.989C725.21 201.67 713.408 201.798 702.006 199.363C672.184 194.288 644.699 180.013 623.408 158.543C602.257 138.304 588.769 111.376 585.234 82.3311C584.237 73.6365 584.553 64.8415 586.171 56.2407C588.939 41.4379 595.24 27.5206 604.54 15.6694M491.392 2L490.33 2.62416C490.904 3.08103 491.51 3.49815 492.142 3.87254C533.729 31.284 563.721 73.0711 576.362 121.217C580.059 134.12 580.786 147.691 578.487 160.914C577.101 170.174 572.909 178.787 566.475 185.595C560.041 192.402 551.673 197.076 542.499 198.989C531.152 201.67 519.351 201.798 507.949 199.363C478.126 194.288 450.642 180.013 429.351 158.543C408.2 138.304 394.712 111.376 391.177 82.3311C390.18 73.6365 390.495 64.8415 392.114 56.2407C394.882 41.4379 401.183 27.5206 410.482 15.6694M297.334 2L296.272 2.62416C296.847 3.08103 297.452 3.49815 298.084 3.87254C339.671 31.284 369.663 73.0711 382.305 121.217C386.002 134.12 386.728 147.691 384.429 160.914C383.043 170.174 378.851 178.787 372.417 185.595C365.983 192.402 357.616 197.076 348.442 198.989C337.095 201.67 325.293 201.798 313.891 199.363C284.068 194.288 256.584 180.013 235.293 158.543C214.142 138.304 200.654 111.376 197.119 82.3311C196.122 73.6365 196.438 64.8415 198.056 56.2407C200.824 41.4379 207.125 27.5206 216.425 15.6694M103.277 2L102.215 2.62416C102.789 3.08103 103.395 3.49815 104.026 3.87254C145.614 31.284 175.605 73.0711 188.247 121.217C191.944 134.12 192.67 147.691 190.371 160.914C188.986 170.174 184.794 178.787 178.359 185.595C171.925 192.402 163.558 197.076 154.384 198.989C143.037 201.67 131.236 201.798 119.833 199.363C90.0109 194.288 62.5267 180.013 41.2358 158.543C20.0848 138.304 6.59678 111.376 3.06165 82.3311C2.06452 73.6365 2.3804 64.8415 3.99878 56.2407C7.31126 38.8043 15.4249 22.6361 27.4281 9.55249L28.5526 8.05448V7.43032C26.312 7.15287 24.0457 7.15287 21.8051 7.43032C17.3767 8.35522 12.7622 7.58562 8.87463 5.27387M66.6021 23.2219C65.7898 22.7226 65.1024 22.348 64.1028 23.2219C53.7865 31.3587 45.8817 42.1471 41.2358 54.4305C38.9911 60.9951 37.9334 67.9062 38.1119 74.841C38.7664 87.3125 42.5011 99.4282 48.983 110.107C56.7336 123.792 67.3791 135.623 80.1769 144.775C92.9747 153.928 107.617 160.181 123.082 163.099C128.902 164.531 134.922 164.974 140.889 164.41C143.388 164.167 145.846 163.601 148.199 162.725C150.052 161.854 151.623 160.479 152.728 158.756C153.833 157.033 154.429 155.034 154.446 152.987C155.462 145.334 154.866 137.553 152.697 130.143C145.459 101.446 130.484 75.2807 109.4 54.493C96.6972 42.0518 82.2869 31.4804 66.6021 23.097V23.2219ZM260.66 23.2219C259.847 22.7226 259.16 22.348 258.16 23.2219C247.844 31.3587 239.939 42.1471 235.293 54.4305C233.049 60.9951 231.991 67.9062 232.169 74.841C232.824 87.3125 236.559 99.4282 243.041 110.107C250.791 123.792 261.437 135.623 274.234 144.775C287.032 153.928 301.674 160.181 317.14 163.099C322.96 164.531 328.979 164.974 334.946 164.41C337.446 164.167 339.903 163.601 342.256 162.725C344.11 161.854 345.68 160.479 346.785 158.756C347.891 157.033 348.487 155.034 348.504 152.987C349.52 145.334 348.924 137.553 346.755 130.143C339.517 101.446 324.541 75.2807 303.457 54.493C290.755 42.0518 276.344 31.4804 260.66 23.097V23.2219ZM454.717 23.2219C453.905 22.7226 453.218 22.348 452.218 23.2219C441.902 31.3587 433.997 42.1471 429.351 54.4305C427.106 60.9951 426.048 67.9062 426.227 74.841C426.881 87.3125 430.616 99.4282 437.098 110.107C444.849 123.792 455.494 135.623 468.292 144.775C481.09 153.928 495.732 160.181 511.197 163.099C517.038 164.533 523.079 164.976 529.066 164.41C531.544 164.16 533.98 163.594 536.314 162.725C538.168 161.854 539.738 160.479 540.843 158.756C541.948 157.033 542.544 155.034 542.562 152.987C543.577 145.334 542.982 137.553 540.812 130.143C533.574 101.446 518.599 75.2807 497.515 54.493C484.812 42.0518 470.402 31.4804 454.717 23.097V23.2219ZM648.775 23.2219C647.962 22.7226 647.275 22.348 646.276 23.2219C635.959 31.3587 628.054 42.1471 623.408 54.4305C621.164 60.9951 620.106 67.9062 620.285 74.841C620.939 87.3125 624.674 99.4282 631.156 110.107C638.954 123.729 649.627 135.492 662.434 144.578C675.241 153.665 689.874 159.857 705.318 162.725C711.158 164.159 717.199 164.602 723.186 164.035C725.664 163.786 728.1 163.219 730.434 162.35C732.288 161.48 733.858 160.104 734.963 158.381C736.068 156.659 736.664 154.659 736.682 152.613C737.697 144.959 737.102 137.178 734.932 129.768C727.694 101.071 712.719 74.9062 691.635 54.1184C678.889 41.8048 664.458 31.3602 648.775 23.097V23.2219Z" stroke="url(#paint0_linear_501_152)" stroke-opacity="0.6" stroke-width="3" stroke-miterlimit="10"/>
<defs>
<linearGradient id="paint0_linear_501_152" x1="1293.11" y1="78.149" x2="-2.62396" y2="87.655" gradientUnits="userSpaceOnUse">
<stop offset="0.03" stop-color="#FAED24"/>
<stop offset="0.7" stop-color="#EB5231"/>
<stop offset="1" stop-color="#40BDEB"/>
</linearGradient>
</defs>
</svg>
