<svg width="36" height="36" viewBox="0 0 36 36" fill="none" xmlns="http://www.w3.org/2000/svg">
<path d="M18 0.00292969C8.06677 0.00292969 0 8.0697 0 18.0029C0 27.9362 8.06677 36.0029 18 36.0029C27.9332 36.0029 36 27.9362 36 18.0029C36 8.0697 27.9332 0.00292969 18 0.00292969ZM18 1.38755C27.1842 1.38755 34.6154 8.81878 34.6154 18.0029C34.6154 27.1871 27.1842 34.6183 18 34.6183C8.81585 34.6183 1.38462 27.1871 1.38462 18.0029C1.38462 8.81878 8.81585 1.38755 18 1.38755ZM13.6163 9.69524C13.4937 9.69524 13.376 9.74396 13.2893 9.83069C13.2026 9.91742 13.1538 10.035 13.1538 10.1577V11.0799H11.0769C10.9858 11.0795 10.8955 11.0971 10.8111 11.1318C10.7268 11.1664 10.6502 11.2173 10.5856 11.2816C10.521 11.346 10.4698 11.4224 10.4348 11.5066C10.3998 11.5908 10.3818 11.681 10.3818 11.7722V25.6183C10.3818 25.7095 10.3998 25.7997 10.4348 25.8839C10.4698 25.9681 10.521 26.0445 10.5856 26.1088C10.6502 26.1732 10.7268 26.2241 10.8111 26.2587C10.8955 26.2933 10.9858 26.311 11.0769 26.3106H24.9231C25.1067 26.3106 25.2828 26.2377 25.4126 26.1079C25.5424 25.978 25.6154 25.8019 25.6154 25.6183V11.7722C25.6154 11.5885 25.5424 11.4125 25.4126 11.2826C25.2828 11.1528 25.1067 11.0799 24.9231 11.0799H22.8462V10.1577C22.8462 10.035 22.7974 9.91742 22.7107 9.83069C22.624 9.74396 22.5063 9.69524 22.3837 9.69524H21.924C21.8013 9.69524 21.6837 9.74396 21.597 9.83069C21.5103 9.91742 21.4615 10.035 21.4615 10.1577V11.0799H14.5385V10.1577C14.5385 10.035 14.4897 9.91742 14.403 9.83069C14.3163 9.74396 14.1987 9.69524 14.076 9.69524H13.6163ZM11.7692 12.4645H24.2308V13.8491H11.7692V12.4645ZM11.7692 15.2337H24.2308V24.926H11.7692V15.2337ZM13.1538 16.6183V18.0029H14.5385V16.6183H13.1538ZM15.9231 16.6183V18.0029H17.3077V16.6183H15.9231ZM18.6923 16.6183V18.0029H20.0769V16.6183H18.6923ZM21.4615 16.6183V18.0029H22.8462V16.6183H21.4615ZM13.1538 19.3875V20.7722H14.5385V19.3875H13.1538ZM15.9231 19.3875V20.7722H17.3077V19.3875H15.9231ZM18.6923 19.3875V20.7722H20.0769V19.3875H18.6923ZM21.4615 19.3875V20.7722H22.8462V19.3875H21.4615ZM13.1538 22.1568V23.5414H14.5385V22.1568H13.1538ZM15.9231 22.1568V23.5414H17.3077V22.1568H15.9231ZM18.6923 22.1568V23.5414H20.0769V22.1568H18.6923Z" fill="#142030"/>
</svg>
