<svg width="758" height="251" viewBox="0 0 758 251" fill="none" xmlns="http://www.w3.org/2000/svg">
<path d="M1290.49 191.837C1289.71 196.15 1287.26 199.981 1283.67 202.495C1280.07 205.009 1275.63 206.002 1271.31 205.257C1267.2 204.551 1263.51 202.289 1261.02 198.942C1258.53 195.595 1257.43 191.42 1257.94 187.281C1258.84 179.576 1259.22 171.818 1259.06 164.062C1258.37 141.702 1251.79 119.919 1240 100.9C1228.21 81.8803 1211.62 66.2939 1191.9 55.7053C1176.42 47.7028 1159.34 43.2867 1141.92 42.7849C1124.84 42.1668 1107.78 44.5976 1091.56 49.9629C1091.19 50.1275 1090.84 50.3152 1090.5 50.5247L1092.31 51.773C1133.9 79.1845 1163.89 120.972 1176.53 169.118C1180.26 182.015 1180.99 195.594 1178.65 208.815C1177.27 218.075 1173.08 226.688 1166.64 233.495C1160.21 240.302 1151.84 244.977 1142.67 246.889C1131.32 249.571 1119.52 249.699 1108.12 247.264C1078.3 242.176 1050.82 227.904 1029.52 206.443C1008.39 186.189 994.904 159.269 991.344 130.232C990.374 121.536 990.69 112.745 992.281 104.141C994.551 91.9717 999.247 80.3822 1006.09 70.0613C999.357 64.5384 992.07 59.7274 984.346 55.7053C968.871 47.6947 951.785 43.2781 934.363 42.7849C917.409 42.2021 900.485 44.6326 884.381 49.9629C884.01 50.1156 883.654 50.3037 883.319 50.5247C883.893 50.9815 884.499 51.3986 885.131 51.773C902.036 62.9711 917.176 76.624 930.052 92.2818C948.717 114.704 962.256 140.926 969.726 169.118C973.423 182.02 974.149 195.592 971.85 208.815C970.465 218.075 966.273 226.688 959.839 233.495C953.404 240.302 945.037 244.977 935.863 246.889C924.516 249.571 912.715 249.699 901.312 247.264C871.484 242.204 843.996 227.928 822.715 206.443C801.57 186.192 788.065 159.274 784.478 130.232C783.54 121.535 783.855 112.748 785.415 104.141C788.341 88.8441 794.993 74.5026 804.783 62.384C799.382 58.3737 793.68 54.7845 787.727 51.6482C772.249 43.6457 755.165 39.2296 737.744 38.7278C720.694 38.0982 703.667 40.486 687.449 45.7809L686.387 46.4051C686.962 46.862 687.567 47.2791 688.199 47.6535C729.786 75.065 759.778 116.852 772.42 164.998C776.117 177.901 776.843 191.472 774.544 204.695C773.158 213.955 768.966 222.568 762.532 229.376C756.098 236.183 747.731 240.857 738.557 242.77C727.21 245.451 715.408 245.579 704.006 243.144C674.183 238.069 646.699 223.794 625.408 202.324C604.257 182.085 590.769 155.157 587.234 126.112C586.237 117.417 586.553 108.622 588.171 100.022C590.939 85.2189 597.24 71.3015 606.54 59.4503C602.332 56.5968 597.973 53.9715 593.482 51.5857C578.001 43.5913 560.919 39.1757 543.499 38.6654C526.508 38.078 509.546 40.4867 493.392 45.7809L492.33 46.4051C492.904 46.862 493.51 47.2791 494.141 47.6535C535.729 75.065 565.72 116.852 578.362 164.998C582.059 177.901 582.785 191.472 580.486 204.695C579.101 213.955 574.909 222.568 568.475 229.376C562.04 236.183 553.673 240.857 544.499 242.77C533.152 245.451 521.351 245.579 509.948 243.144C480.126 238.069 452.642 223.794 431.351 202.324C410.2 182.085 396.712 155.157 393.177 126.112C392.179 117.417 392.495 108.622 394.114 100.022C396.882 85.2189 403.183 71.3015 412.482 59.4503C408.274 56.5968 403.915 53.9715 399.424 51.5857C383.943 43.5913 366.861 39.1757 349.442 38.6654C332.45 38.078 315.489 40.4867 299.334 45.7809L298.272 46.4051C298.847 46.862 299.452 47.2791 300.084 47.6535C341.671 75.065 371.663 116.852 384.305 164.998C388.002 177.901 388.728 191.472 386.429 204.695C385.043 213.955 380.851 222.568 374.417 229.376C367.983 236.183 359.615 240.857 350.441 242.77C339.095 245.451 327.293 245.579 315.891 243.144C286.068 238.069 258.584 223.794 237.293 202.324C216.142 182.085 202.654 155.157 199.119 126.112C198.122 117.417 198.438 108.622 200.056 100.022C202.824 85.2189 209.125 71.3015 218.425 59.4503C214.216 56.5968 209.857 53.9715 205.367 51.5857C189.886 43.5913 172.804 39.1757 155.384 38.6654C138.393 38.078 121.431 40.4867 105.277 45.7809L104.214 46.4051C104.789 46.862 105.395 47.2791 106.026 47.6535C147.614 75.065 177.605 116.852 190.247 164.998C193.944 177.901 194.67 191.472 192.371 204.695C190.986 213.955 186.794 222.568 180.359 229.376C173.925 236.183 165.558 240.857 156.384 242.77C145.037 245.451 133.236 245.579 121.833 243.144C92.0108 238.069 64.5266 223.794 43.2357 202.324C22.0847 182.085 8.59666 155.157 5.06152 126.112C4.0644 117.417 4.38028 108.622 5.99866 100.022C9.31114 82.5852 17.4247 66.417 29.428 53.3334L30.5525 51.8354V51.2113C28.3118 50.9338 26.0456 50.9338 23.8049 51.2113C19.3766 52.1362 14.762 51.3666 10.8745 49.0548C6.98698 46.7431 4.10975 43.0576 2.81226 38.7278C2.49986 37.7291 2.24991 36.668 2 35.6069V32.2988C2.15319 31.9129 2.27848 31.5166 2.37488 31.1129C2.79181 28.2553 3.89639 25.5414 5.59399 23.204C7.2916 20.8666 9.5315 18.9756 12.1215 17.6931C17.6874 15.0567 23.9696 14.3325 29.9902 15.6334C40.3578 17.2567 50.4905 20.128 60.1672 24.1846C61.6013 24.8762 63.184 25.2039 64.7751 25.1385C66.3663 25.0732 67.9167 24.6169 69.2892 23.8101C80.432 18.0865 92.1631 13.587 104.277 10.3903C122.63 5.70743 141.599 3.8966 160.507 5.02244C182.129 5.69772 203.563 9.26649 224.235 15.6334C234.107 19.0663 244.728 20.2523 254.412 24.1846C255.846 24.8762 257.429 25.2039 259.02 25.1385C260.611 25.0732 262.162 24.6169 263.534 23.8101C274.677 18.0865 286.408 13.587 298.522 10.3903C316.875 5.70743 335.844 3.8966 354.752 5.02244C376.375 5.69171 397.809 9.26061 418.48 15.6334C428.352 19.0663 438.973 20.2523 448.657 24.1846C450.091 24.8762 451.674 25.2039 453.265 25.1385C454.856 25.0732 456.407 24.6169 457.779 23.8101C468.905 18.0969 480.614 13.5977 492.704 10.3903C511.059 5.71734 530.027 3.90667 548.935 5.02244C570.557 5.69171 591.992 9.26061 612.663 15.6334C622.534 19.0663 633.156 20.2523 642.84 24.1846C644.274 24.8762 645.857 25.2039 647.448 25.1385C649.039 25.0732 650.589 24.6169 651.962 23.8101C680.047 9.44413 711.511 2.97184 742.992 5.08487C753.341 5.88199 763.603 7.55238 773.669 10.0782C785.886 12.5942 797.944 15.8247 809.782 19.7529C819.716 23.061 830.275 24.3718 839.959 28.3041C841.393 28.9957 842.976 29.3234 844.567 29.2581C846.158 29.1928 847.708 28.7365 849.081 27.9296C860.202 22.2496 872.697 19.7529 884.006 14.5099C901.638 6.90388 920.542 2.66952 939.737 2.02639C966.04 1.46464 989.719 9.95342 1017.02 19.5657C1026.89 23.0611 1037.52 24.1845 1047.2 28.1168C1048.63 28.8139 1050.22 29.1446 1051.81 29.0792C1053.4 29.0139 1054.95 28.5545 1056.32 27.7423C1084.43 13.3742 1115.91 6.90212 1147.41 9.01715C1168.49 10.2744 1189.08 15.9215 1207.84 25.5958C1226.61 35.2701 1243.14 48.7577 1256.38 65.1927C1270.73 82.7806 1281.23 103.172 1287.23 125.058C1293.22 146.943 1294.57 169.839 1291.18 192.274L1290.49 191.837ZM68.6019 67.0028C67.7897 66.5035 67.1023 66.129 66.1027 67.0028C55.7864 75.1396 47.8816 85.9281 43.2357 98.2115C40.991 104.776 39.9332 111.687 40.1118 118.622C40.7662 131.093 44.501 143.209 50.9829 153.888C58.7334 167.573 69.3789 179.404 82.1768 188.556C94.9746 197.709 109.617 203.962 125.082 206.88C130.902 208.312 136.922 208.755 142.889 208.191C145.388 207.948 147.845 207.382 150.198 206.505C152.052 205.635 153.622 204.26 154.728 202.537C155.833 200.814 156.429 198.815 156.446 196.768C157.462 189.115 156.866 181.334 154.697 173.924C147.459 145.227 132.484 119.062 111.399 98.2739C98.6971 85.8327 84.2868 75.2614 68.6019 66.878V67.0028ZM262.659 67.0028C261.847 66.5035 261.16 66.129 260.16 67.0028C249.844 75.1396 241.939 85.9281 237.293 98.2115C235.049 104.776 233.991 111.687 234.169 118.622C234.824 131.093 238.559 143.209 245.041 153.888C252.791 167.573 263.436 179.404 276.234 188.556C289.032 197.709 303.674 203.962 319.14 206.88C324.96 208.312 330.979 208.755 336.946 208.191C339.446 207.948 341.903 207.382 344.256 206.505C346.11 205.635 347.68 204.26 348.785 202.537C349.891 200.814 350.486 198.815 350.504 196.768C351.52 189.115 350.924 181.334 348.754 173.924C341.516 145.227 326.541 119.062 305.457 98.2739C292.755 85.8327 278.344 75.2614 262.659 66.878V67.0028ZM456.717 67.0028C455.905 66.5035 455.217 66.129 454.218 67.0028C443.902 75.1396 435.997 85.9281 431.351 98.2115C429.106 104.776 428.048 111.687 428.227 118.622C428.881 131.093 432.616 143.209 439.098 153.888C446.849 167.573 457.494 179.404 470.292 188.556C483.09 197.709 497.732 203.962 513.197 206.88C519.038 208.314 525.078 208.757 531.066 208.191C533.544 207.941 535.98 207.375 538.314 206.505C540.167 205.635 541.737 204.26 542.843 202.537C543.948 200.814 544.544 198.815 544.561 196.768C545.577 189.115 544.981 181.334 542.812 173.924C535.574 145.227 520.599 119.062 499.515 98.2739C486.812 85.8327 472.402 75.2614 456.717 66.878V67.0028ZM650.774 67.0028C649.962 66.5035 649.275 66.129 648.275 67.0028C637.959 75.1396 630.054 85.9281 625.408 98.2115C623.164 104.776 622.106 111.687 622.284 118.622C622.939 131.093 626.674 143.209 633.156 153.888C640.954 167.51 651.627 179.273 664.434 188.359C677.241 197.446 691.874 203.638 707.317 206.505C713.158 207.94 719.198 208.383 725.186 207.816C727.664 207.566 730.1 207 732.434 206.131C734.287 205.261 735.858 203.885 736.963 202.162C738.068 200.44 738.664 198.44 738.681 196.394C739.697 188.74 739.102 180.959 736.932 173.549C729.694 144.852 714.719 118.687 693.635 97.8994C680.889 85.5857 666.458 75.1411 650.774 66.878V67.0028ZM847.893 70.7478C847.019 70.2485 846.332 69.874 845.394 70.7478C835.06 78.8669 827.151 89.6609 822.527 101.956C820.283 108.521 819.225 115.432 819.403 122.367C820.058 134.838 823.793 146.954 830.275 157.633C838.018 171.323 848.662 183.158 861.461 192.312C874.26 201.465 888.905 207.715 904.374 210.625C910.194 212.057 916.213 212.5 922.18 211.936C924.661 211.7 927.098 211.133 929.428 210.25C931.277 209.374 932.843 207.997 933.947 206.276C935.052 204.554 935.651 202.558 935.676 200.513C936.669 192.859 936.074 185.083 933.926 177.669C926.731 148.978 911.824 122.798 890.816 101.956C878.063 89.5719 863.611 79.0636 847.893 70.7478ZM1055.13 70.7478C1054.32 70.2485 1053.63 69.874 1052.7 70.7478C1042.36 78.8809 1034.44 89.6688 1029.77 101.956C1027.52 108.518 1026.48 115.434 1026.71 122.367C1027.31 134.838 1031.03 146.961 1037.52 157.633C1045.28 171.319 1055.94 183.151 1068.74 192.303C1081.55 201.455 1096.2 207.707 1111.68 210.625C1117.5 212.057 1123.52 212.5 1129.48 211.936C1131.96 211.686 1134.4 211.12 1136.73 210.25C1138.58 209.38 1140.15 208.005 1141.26 206.282C1142.37 204.559 1142.96 202.56 1142.98 200.513C1143.99 192.864 1143.42 185.087 1141.29 177.669C1134.06 148.965 1119.11 122.783 1098.06 101.956C1085.31 89.5595 1070.86 79.0498 1055.13 70.7478Z" stroke="url(#paint0_linear_220_110)" stroke-opacity="0.6" stroke-width="3" stroke-miterlimit="10"/>
<defs>
<linearGradient id="paint0_linear_220_110" x1="1295.11" y1="121.93" x2="-0.623944" y2="131.436" gradientUnits="userSpaceOnUse">
<stop offset="0.03" stop-color="#FAED24"/>
<stop offset="0.7" stop-color="#EB5231"/>
<stop offset="1" stop-color="#40BDEB"/>
</linearGradient>
</defs>
</svg>
