<svg width="46" height="48" viewBox="0 0 46 48" fill="none" xmlns="http://www.w3.org/2000/svg">
<path d="M23.5926 1.5C12.4879 1.5 3.49453 10.8844 3.49453 22.4719C3.49453 27.1406 4.95898 31.4531 7.42969 34.9406L2.30859 46.5L3.64727 45.8531L13.9613 40.8844C16.8184 42.5156 20.0977 43.4437 23.5836 43.4437C34.6793 43.4437 43.6816 34.0594 43.6816 22.4719C43.6906 10.8844 34.6883 1.5 23.5926 1.5ZM34.3109 31.425C34.1941 32.0063 33.9516 32.5594 33.6012 33.0469C33.1699 33.6469 32.6129 34.0969 31.975 34.3781C31.3371 34.6594 30.6363 34.7719 29.9355 34.6781C28.0578 34.4437 26.243 33.8156 24.6168 32.8031C22.7391 31.6406 20.2145 29.8313 18.3098 27.2438C16.2793 24.7594 15.1742 21.8531 14.4734 19.6875C13.8715 17.8219 13.6559 15.8344 13.8266 13.875C13.8895 13.1344 14.141 12.4406 14.5363 11.85C14.9316 11.2594 15.4797 10.7812 16.1266 10.4719C16.6566 10.2094 17.2316 10.0875 17.7977 10.0875C18.6063 10.0875 19.5945 10.0781 20.2773 10.5844C21.3375 11.3625 21.7867 12.9 21.7867 14.25C21.7867 14.3719 21.7777 14.5031 21.7688 14.625C21.7059 15.3656 21.643 16.0125 21.2387 16.6031C20.8434 17.1938 20.1156 17.7094 19.4688 18.0281C19.9629 20.8031 20.8164 22.8656 21.9934 24.1969C22.4965 24.9281 23.1793 25.6219 24.0508 26.2688C24.9223 26.9156 25.9734 27.5063 27.2223 28.05C27.6535 27.4594 28.2914 26.8219 28.9293 26.5406C29.5582 26.2594 30.1871 26.325 30.8879 26.4187C31.0047 26.4375 31.1305 26.4562 31.2473 26.4844C32.5051 26.7656 33.8527 27.5438 34.3648 28.7906C34.6883 29.5969 34.4816 30.6 34.3109 31.425Z" fill="#40E346"/>
</svg>
