<svg width="117" height="117" viewBox="0 0 117 117" fill="none" xmlns="http://www.w3.org/2000/svg">
<circle cx="58.5" cy="58.5" r="58.5" fill="#142030" fill-opacity="0.2"/>
<path d="M81.001 47.998C82.111 47.998 83.001 48.898 83.001 49.998C83.001 51.108 82.111 51.998 81.001 51.998C79.901 51.998 79.001 51.108 79.001 49.998C79.001 48.898 79.901 47.998 81.001 47.998ZM81.001 57.998C82.111 57.998 83.001 58.898 83.001 59.998C83.001 61.108 82.111 61.998 81.001 61.998C79.901 61.998 79.001 61.108 79.001 59.998C79.001 58.898 79.901 57.998 81.001 57.998ZM70.001 63.998C71.111 63.998 72.001 64.898 72.001 65.998C72.001 67.108 71.111 67.998 70.001 67.998C68.901 67.998 68.001 67.108 68.001 65.998C68.001 64.898 68.901 63.998 70.001 63.998ZM64.001 59.998C65.111 59.998 66.001 60.898 66.001 61.998C66.001 63.098 65.111 63.998 64.001 63.998C62.901 63.998 62.001 63.098 62.001 61.998C62.001 60.898 62.901 59.998 64.001 59.998ZM58.001 55.998C59.111 55.998 60.001 56.888 60.001 57.998C60.001 59.098 59.111 59.998 58.001 59.998C56.901 59.998 56.001 59.098 56.001 57.998C56.001 56.888 56.901 55.998 58.001 55.998ZM51.001 53.998C52.101 53.998 53.001 54.898 53.001 55.998C53.001 57.108 52.101 57.998 51.001 57.998C49.901 57.998 49.001 57.108 49.001 55.998C49.001 54.898 49.901 53.998 51.001 53.998ZM51.001 63.998C52.101 63.998 53.001 64.898 53.001 65.998C53.001 67.108 52.101 67.998 51.001 67.998C49.901 67.998 49.001 67.108 49.001 65.998C49.001 64.898 49.901 63.998 51.001 63.998Z" fill="#142030"/>
<path d="M89.999 54.999H28.001C27.448 54.999 27.001 54.552 27.001 53.999C27.001 53.446 27.448 52.999 28.001 52.999H89.999C90.552 52.999 90.999 53.446 90.999 53.999C90.999 54.552 90.552 54.999 89.999 54.999ZM62.001 63.001H28.001C27.448 63.001 27.001 62.554 27.001 62.001C27.001 61.448 27.448 61.001 28.001 61.001H62.001C62.554 61.001 63.001 61.448 63.001 62.001C63.001 62.554 62.554 63.001 62.001 63.001ZM49 67.002H28.001C27.448 67.002 27.001 66.555 27.001 66.002C27.001 65.449 27.448 65.002 28.001 65.002H49C49.553 65.002 50 65.449 50 66.002C50 66.555 49.553 67.002 49 67.002ZM89.999 63H66.001C65.448 63 65.001 62.553 65.001 62C65.001 61.447 65.448 61 66.001 61H89.999C90.552 61 90.999 61.447 90.999 62C90.999 62.553 90.552 63 89.999 63ZM56.001 59.003H28.001C27.448 59.003 27.001 58.556 27.001 58.003C27.001 57.45 27.448 57.003 28.001 57.003H56.001C56.554 57.003 57.001 57.45 57.001 58.003C57.001 58.556 56.554 59.003 56.001 59.003ZM89.999 58.998H60.001C59.448 58.998 59.001 58.551 59.001 57.998C59.001 57.445 59.448 56.998 60.001 56.998H89.999C90.552 56.998 90.999 57.445 90.999 57.998C90.999 58.551 90.552 58.998 89.999 58.998ZM68.001 67.002H53C52.447 67.002 52 66.555 52 66.002C52 65.449 52.447 65.002 53 65.002H68.001C68.554 65.002 69.001 65.449 69.001 66.002C69.001 66.555 68.554 67.002 68.001 67.002ZM89.999 67.002H72.001C71.448 67.002 71.001 66.555 71.001 66.002C71.001 65.449 71.448 65.002 72.001 65.002H89.999C90.552 65.002 90.999 65.449 90.999 66.002C90.999 66.555 90.552 67.002 89.999 67.002ZM89.999 51.002H83.002C82.449 51.002 82.002 50.555 82.002 50.002C82.002 49.449 82.449 49.002 83.002 49.002H89.999C90.552 49.002 90.999 49.449 90.999 50.002C90.999 50.555 90.552 51.002 89.999 51.002ZM79.002 50.998H28.001C27.448 50.998 27.001 50.551 27.001 49.998C27.001 49.445 27.448 48.998 28.001 48.998H79.002C79.555 48.998 80.002 49.445 80.002 49.998C80.002 50.551 79.555 50.998 79.002 50.998Z" fill="#E6E9ED"/>
<path d="M38.002 67.002C37.449 67.002 37.002 66.555 37.002 66.002C37.002 65.449 37.449 65.002 38.002 65.002C39.656 65.002 41.003 63.655 41.003 62.001C41.003 60.347 39.656 59 38.002 59C37.449 59 37.002 58.553 37.002 58C37.002 57.447 37.449 57 38.002 57C40.76 57 43.003 59.243 43.003 62.001C43.003 64.759 40.76 67.002 38.002 67.002Z" fill="#142030"/>
<path d="M37.9991 67.002C34.1381 67.002 30.9971 63.861 30.9971 60.001C30.9971 56.14 34.1381 52.999 37.9991 52.999C38.5521 52.999 38.9991 53.446 38.9991 53.999C38.9991 54.552 38.5521 54.999 37.9991 54.999C35.2411 54.999 32.9971 57.243 32.9971 60.001C32.9971 62.759 35.2411 65.002 37.9991 65.002C38.5521 65.002 38.9991 65.449 38.9991 66.002C38.9991 66.555 38.5521 67.002 37.9991 67.002Z" fill="#142030"/>
<path d="M37.999 70.002C37.446 70.002 36.999 69.555 36.999 69.002V47.999C36.999 47.446 37.446 46.999 37.999 46.999C38.552 46.999 38.999 47.446 38.999 47.999V69.002C38.999 69.555 38.552 70.002 37.999 70.002Z" fill="#142030"/>
<path d="M36 72C34.346 72 33 70.654 33 69C33 68.447 33.447 68 34 68C34.553 68 35 68.447 35 69C35 69.552 35.448 70 36 70C36.552 70 37 69.552 37 69C37 68.447 37.447 68 38 68C38.553 68 39 68.447 39 69C39 70.654 37.654 72 36 72ZM44 48.999C43.447 48.999 43 48.552 43 47.999C43 46.895 42.103 45.998 41 45.998C39.896 45.998 38.999 46.895 38.999 47.999C38.999 48.552 38.552 48.999 37.999 48.999C37.446 48.999 36.999 48.552 36.999 47.999C36.999 45.793 38.794 43.998 41 43.998C43.206 43.998 45 45.793 45 47.999C45 48.552 44.553 48.999 44 48.999Z" fill="#142030"/>
<path d="M37.996 55.003C37.443 55.003 36.996 54.556 36.996 54.003C36.996 53.45 37.443 53.003 37.996 53.003C40.755 53.003 43 50.758 43 47.999C43 47.446 43.447 46.999 44 46.999C44.553 46.999 45 47.446 45 47.999C45 51.861 41.858 55.003 37.996 55.003ZM36 61C35.447 61 35 60.553 35 60C35 58.345 36.347 56.998 38.002 56.998C38.555 56.998 39.002 57.445 39.002 57.998C39.002 58.551 38.555 58.998 38.002 58.998C37.449 58.998 37 59.447 37 60C37 60.553 36.553 61 36 61Z" fill="#142030"/>
<path d="M53 67.0021C52.447 67.0021 52 66.5551 52 66.0021V47.0021C52 46.4491 52.447 46.0021 53 46.0021C53.553 46.0021 54 46.4491 54 47.0021V66.0021C54 66.5551 53.553 67.0021 53 67.0021ZM79.002 72.0021C78.449 72.0021 78.002 71.5551 78.002 71.0021V50.0021C78.002 49.4491 78.449 49.0021 79.002 49.0021C79.555 49.0021 80.002 49.4491 80.002 50.0021V71.0021C80.002 71.5551 79.555 72.0021 79.002 72.0021ZM60.001 58.9981C59.448 58.9981 59.001 58.5511 59.001 57.9981V47.0021C59.001 46.4491 59.448 46.0021 60.001 46.0021C60.554 46.0021 61.001 46.4491 61.001 47.0021V57.9981C61.001 58.5511 60.554 58.9981 60.001 58.9981ZM66.001 63.0001C65.448 63.0001 65.001 62.5531 65.001 62.0001V47.0021C65.001 46.4491 65.448 46.0021 66.001 46.0021C66.554 46.0021 67.001 46.4491 67.001 47.0021V62.0001C67.001 62.5531 66.554 63.0001 66.001 63.0001ZM72.001 67.0021C71.448 67.0021 71.001 66.5551 71.001 66.0021V47.0021C71.001 46.4491 71.448 46.0021 72.001 46.0021C72.554 46.0021 73.001 46.4491 73.001 47.0021V66.0021C73.001 66.5551 72.554 67.0021 72.001 67.0021Z" fill="#142030"/>
<path d="M72.001 48.0021H53C52.447 48.0021 52 47.5551 52 47.0021C52 46.4491 52.447 46.0021 53 46.0021H72.001C72.554 46.0021 73.001 46.4491 73.001 47.0021C73.001 47.5551 72.554 48.0021 72.001 48.0021Z" fill="#142030"/>
<path d="M51 59.0031C49.346 59.0031 48 57.6571 48 56.0031C48 54.3491 49.346 53.0031 51 53.0031C52.654 53.0031 54 54.3491 54 56.0031C54 57.6571 52.654 59.0031 51 59.0031ZM51 55.0031C50.448 55.0031 50 55.4511 50 56.0031C50 56.5551 50.448 57.0031 51 57.0031C51.552 57.0031 52 56.5551 52 56.0031C52 55.4511 51.552 55.0031 51 55.0031ZM58.001 60.9981C56.347 60.9981 55.001 59.6521 55.001 57.9981C55.001 56.3441 56.347 54.9981 58.001 54.9981C59.655 54.9981 61.001 56.3441 61.001 57.9981C61.001 59.6521 59.655 60.9981 58.001 60.9981ZM58.001 56.9981C57.449 56.9981 57.001 57.4461 57.001 57.9981C57.001 58.5501 57.449 58.9981 58.001 58.9981C58.553 58.9981 59.001 58.5501 59.001 57.9981C59.001 57.4461 58.553 56.9981 58.001 56.9981ZM64.001 65.0001C62.347 65.0001 61.001 63.6541 61.001 62.0001C61.001 60.3461 62.347 59.0001 64.001 59.0001C65.655 59.0001 67.001 60.3461 67.001 62.0001C67.001 63.6541 65.655 65.0001 64.001 65.0001ZM64.001 61.0001C63.449 61.0001 63.001 61.4481 63.001 62.0001C63.001 62.5521 63.449 63.0001 64.001 63.0001C64.553 63.0001 65.001 62.5521 65.001 62.0001C65.001 61.4481 64.553 61.0001 64.001 61.0001ZM70.001 69.0021C68.347 69.0021 67.001 67.6561 67.001 66.0021C67.001 64.3481 68.347 63.0021 70.001 63.0021C71.655 63.0021 73.001 64.3481 73.001 66.0021C73.001 67.6561 71.655 69.0021 70.001 69.0021ZM70.001 65.0021C69.449 65.0021 69.001 65.4501 69.001 66.0021C69.001 66.5541 69.449 67.0021 70.001 67.0021C70.553 67.0021 71.001 66.5541 71.001 66.0021C71.001 65.4501 70.553 65.0021 70.001 65.0021ZM51 69.0021C49.346 69.0021 48 67.6561 48 66.0021C48 64.3481 49.346 63.0021 51 63.0021C52.654 63.0021 54 64.3481 54 66.0021C54 67.6561 52.654 69.0021 51 69.0021ZM51 65.0021C50.448 65.0021 50 65.4501 50 66.0021C50 66.5541 50.448 67.0021 51 67.0021C51.552 67.0021 52 66.5541 52 66.0021C52 65.4501 51.552 65.0021 51 65.0021ZM81.002 53.0021C79.348 53.0021 78.002 51.6561 78.002 50.0021C78.002 48.3481 79.348 47.0021 81.002 47.0021C82.656 47.0021 84.002 48.3481 84.002 50.0021C84.002 51.6561 82.656 53.0021 81.002 53.0021ZM81.002 49.0021C80.45 49.0021 80.002 49.4501 80.002 50.0021C80.002 50.5541 80.45 51.0021 81.002 51.0021C81.554 51.0021 82.002 50.5541 82.002 50.0021C82.002 49.4501 81.554 49.0021 81.002 49.0021ZM81.002 63.0021C79.348 63.0021 78.002 61.6561 78.002 60.0021C78.002 58.3481 79.348 57.0021 81.002 57.0021C82.656 57.0021 84.002 58.3481 84.002 60.0021C84.002 61.6561 82.656 63.0021 81.002 63.0021ZM81.002 59.0021C80.45 59.0021 80.002 59.4501 80.002 60.0021C80.002 60.5541 80.45 61.0021 81.002 61.0021C81.554 61.0021 82.002 60.5541 82.002 60.0021C82.002 59.4501 81.554 59.0021 81.002 59.0021Z" fill="#142030"/>
</svg>
