<svg width="117" height="117" viewBox="0 0 117 117" fill="none" xmlns="http://www.w3.org/2000/svg">
<circle cx="58.5" cy="58.5" r="58.5" fill="#142030" fill-opacity="0.2"/>
<path d="M82.9997 31.3334H34.9997C34.2924 31.3334 33.6142 31.6143 33.1141 32.1144C32.614 32.6145 32.333 33.2928 32.333 34V82C32.333 82.7073 32.614 83.3856 33.1141 83.8857C33.6142 84.3858 34.2924 84.6667 34.9997 84.6667H82.9997C83.7069 84.6667 84.3852 84.3858 84.8853 83.8857C85.3854 83.3856 85.6663 82.7073 85.6663 82V34C85.6663 33.2928 85.3854 32.6145 84.8853 32.1144C84.3852 31.6143 83.7069 31.3334 82.9997 31.3334ZM80.333 79.3334H37.6663V36.6667H80.333V79.3334Z" fill="#142030"/>
<path d="M52.4667 68.3733C52.8929 68.572 53.364 68.6544 53.8323 68.6123C54.3006 68.5701 54.7495 68.4049 55.1333 68.1333L65.8 60.1333C66.1312 59.8849 66.4 59.5628 66.5851 59.1926C66.7703 58.8223 66.8667 58.414 66.8667 58C66.8667 57.586 66.7703 57.1777 66.5851 56.8074C66.4 56.4371 66.1312 56.115 65.8 55.8666L55.1333 47.8666C54.7379 47.6058 54.2802 47.4551 53.8071 47.4298C53.3341 47.4046 52.8629 47.5058 52.442 47.723C52.0211 47.9403 51.6656 48.2657 51.4122 48.6659C51.1587 49.0661 51.0165 49.5266 51 50V66C51.0015 66.4924 51.1393 66.9748 51.3982 67.3938C51.6571 67.8127 52.0269 68.1517 52.4667 68.3733ZM56.3333 55.3333L59.88 58L56.3333 60.6666V55.3333Z" fill="#142030"/>
<path d="M45.6663 39.3334H40.333V44.6667H45.6663V39.3334Z" fill="#142030"/>
<path d="M56.3333 39.3334H51V44.6667H56.3333V39.3334Z" fill="#142030"/>
<path d="M66.9993 39.3334H61.666V44.6667H66.9993V39.3334Z" fill="#142030"/>
<path d="M77.6663 39.3334H72.333V44.6667H77.6663V39.3334Z" fill="#142030"/>
<path d="M45.6663 71.3334H40.333V76.6667H45.6663V71.3334Z" fill="#142030"/>
<path d="M56.3333 71.3334H51V76.6667H56.3333V71.3334Z" fill="#142030"/>
<path d="M66.9993 71.3334H61.666V76.6667H66.9993V71.3334Z" fill="#142030"/>
<path d="M77.6663 71.3334H72.333V76.6667H77.6663V71.3334Z" fill="#142030"/>
</svg>
