<svg width="117" height="117" viewBox="0 0 117 117" fill="none" xmlns="http://www.w3.org/2000/svg">
<circle cx="58.5" cy="58.5" r="58.5" fill="#142030" fill-opacity="0.2"/>
<path d="M84.1431 86.5714V88.8571C84.1431 89.1667 84.03 89.4345 83.8038 89.6607C83.5777 89.8869 83.3098 90 83.0003 90H35.0003C34.6908 90 34.4229 89.8869 34.1967 89.6607C33.9705 89.4345 33.8574 89.1667 33.8574 88.8571V86.5714C33.8574 86.2619 33.9705 85.994 34.1967 85.7679C34.4229 85.5417 34.6908 85.4286 35.0003 85.4286H83.0003C83.3098 85.4286 83.5777 85.5417 83.8038 85.7679C84.03 85.994 84.1431 86.2619 84.1431 86.5714ZM75.0003 48.8571C75.0003 50.7143 74.7086 52.4286 74.1253 54C73.5419 55.5714 72.78 56.9107 71.8396 58.0179C70.8991 59.125 69.8574 60.1726 68.7146 61.1607C67.5717 62.1488 66.4288 63.0714 65.286 63.9286C64.1431 64.7857 63.1015 65.6429 62.161 66.5C61.2205 67.3571 60.4586 68.3274 59.8753 69.4107C59.2919 70.494 59.0003 71.6429 59.0003 72.8571C59.0003 75.1429 59.7979 77.8095 61.3931 80.8571L61.2503 80.8214L61.286 80.8571C59.1431 79.881 57.2384 78.8929 55.5717 77.8929C53.905 76.8929 52.2562 75.7024 50.6253 74.3214C48.9943 72.9405 47.6431 71.4821 46.5717 69.9464C45.5003 68.4107 44.6372 66.619 43.9824 64.5714C43.3277 62.5238 43.0003 60.3333 43.0003 58C43.0003 56.1429 43.2919 54.4286 43.8753 52.8571C44.4586 51.2857 45.2205 49.9464 46.161 48.8393C47.1015 47.7321 48.1431 46.6845 49.286 45.6964C50.4289 44.7083 51.5717 43.7857 52.7146 42.9286C53.8574 42.0714 54.8991 41.2143 55.8396 40.3571C56.78 39.5 57.5419 38.5298 58.1253 37.4464C58.7086 36.3631 59.0003 35.2143 59.0003 34C59.0003 31.7619 58.2146 29.0952 56.6431 26L56.7503 26.0357L56.7146 26C58.8574 26.9762 60.7622 27.9643 62.4288 28.9643C64.0955 29.9643 65.7443 31.1548 67.3753 32.5357C69.0062 33.9167 70.3574 35.375 71.4288 36.9107C72.5003 38.4464 73.3634 40.2381 74.0181 42.2857C74.6729 44.3333 75.0003 46.5238 75.0003 48.8571Z" fill="#142030"/>
</svg>
