<svg width="117" height="117" viewBox="0 0 117 117" fill="none" xmlns="http://www.w3.org/2000/svg">
<circle cx="58.5" cy="58.5" r="58.5" fill="#142030" fill-opacity="0.2"/>
<path d="M53.2882 57.2741C53.2708 57.1183 53.217 56.9688 53.1312 56.8377C53.0454 56.7065 52.93 56.5974 52.7942 56.5191L37.2062 47.5191C37.0704 47.4406 36.9181 47.3951 36.7615 47.3864C36.6049 47.3776 36.4485 47.4058 36.3048 47.4687C36.1611 47.5316 36.0343 47.6274 35.9345 47.7484C35.8346 47.8693 35.7647 48.0121 35.7302 48.1651L29.0582 77.6311L28.6342 78.3661C28.437 78.7074 28.309 79.0843 28.2576 79.4752C28.2061 79.8661 28.2322 80.2633 28.3344 80.6441C28.4366 81.0248 28.6128 81.3817 28.853 81.6944C29.0932 82.007 29.3926 82.2692 29.7342 82.4661C29.9633 82.5987 30.1305 82.8167 30.1992 83.0724C30.2678 83.3281 30.2322 83.6006 30.1002 83.8301L29.1002 85.5621C29.0335 85.6758 28.99 85.8017 28.9721 85.9323C28.9542 86.063 28.9624 86.1959 28.9961 86.3234C29.0298 86.4509 29.0884 86.5705 29.1685 86.6752C29.2486 86.78 29.3487 86.8679 29.4629 86.9338C29.5771 86.9998 29.7032 87.0425 29.834 87.0595C29.9648 87.0765 30.0976 87.0674 30.2249 87.0329C30.3522 86.9983 30.4714 86.9389 30.5756 86.8581C30.6798 86.7773 30.767 86.6767 30.8322 86.5621L31.8322 84.8311C32.0294 84.4897 32.1574 84.1128 32.2088 83.7219C32.2603 83.331 32.2342 82.9338 32.132 82.5531C32.0299 82.1723 31.8536 81.8154 31.6135 81.5027C31.3733 81.1901 31.0738 80.9279 30.7322 80.7311C30.5025 80.5984 30.3349 80.38 30.2663 80.1239C30.1977 79.8677 30.2336 79.5947 30.3662 79.3651L30.7912 78.6301L52.9732 58.1201C53.0884 58.0136 53.1769 57.8816 53.2316 57.7346C53.2863 57.5877 53.3057 57.4299 53.2882 57.2741ZM31.6882 75.0741L33.1002 68.8421L34.1592 72.7931L31.6882 75.0741ZM35.8182 71.2551L34.0482 64.6531L35.4482 58.4771L38.2652 69.0001L35.8182 71.2551ZM39.9252 67.4551L36.4002 54.2881L37.3872 49.9301L38.4502 50.5441L42.3722 65.2001L39.9252 67.4551ZM44.0322 63.6551L40.9002 51.9581L44.5132 54.0441L46.4792 61.4001L44.0322 63.6551ZM48.1392 59.8551L46.9582 55.4471L50.6192 57.5621L48.1392 59.8551ZM45.5112 51.1591C45.7425 51.2887 46.0158 51.3212 46.271 51.2493C46.5262 51.1775 46.7425 51.0073 46.8722 50.7761L57.3722 32.0541C57.4399 31.9394 57.484 31.8123 57.502 31.6803C57.5199 31.5483 57.5113 31.4141 57.4767 31.2855C57.442 31.1569 57.382 31.0365 57.3002 30.9314C57.2184 30.8263 57.1164 30.7386 57.0002 30.6734C56.884 30.6083 56.756 30.567 56.6237 30.552C56.4913 30.537 56.3573 30.5486 56.2295 30.5861C56.1017 30.6236 55.9827 30.6863 55.8794 30.7704C55.7762 30.8546 55.6908 30.9585 55.6282 31.0761L45.1282 49.8001C44.9992 50.0312 44.9671 50.304 45.0389 50.5587C45.1107 50.8134 45.2805 51.0293 45.5112 51.1591ZM54.4902 45.8601C53.6074 46.3807 52.8027 47.0237 52.1002 47.7701C51.8529 48.0346 51.6193 48.3117 51.4002 48.6001C51.3912 48.6101 51.3712 48.6201 51.3602 48.6401C50.4738 49.795 49.8002 51.0988 49.3712 52.4901C49.2928 52.7426 49.3177 53.0158 49.4402 53.2501C49.566 53.4841 49.778 53.6598 50.0312 53.7401C50.1282 53.7713 50.2293 53.7882 50.3312 53.7901C50.5463 53.7907 50.7559 53.722 50.9288 53.5941C51.1017 53.4662 51.2288 53.2859 51.2912 53.0801C51.6447 51.9149 52.2072 50.8238 52.9512 49.8601C53.1407 49.6087 53.3444 49.3683 53.5612 49.1401C54.1356 48.5292 54.7918 48.0008 55.5112 47.5701C55.6246 47.5041 55.7236 47.4161 55.8026 47.3114C55.8816 47.2066 55.9389 47.0872 55.9712 46.9601C56.0312 46.7018 55.9916 46.4304 55.8602 46.2001C55.7196 45.9779 55.4986 45.8185 55.2434 45.7552C54.9882 45.6918 54.7184 45.7294 54.4902 45.8601ZM40.9362 47.1081C40.8383 47.2025 40.7606 47.3159 40.708 47.4413C40.6554 47.5667 40.6289 47.7016 40.6302 47.8376C40.6315 47.9737 40.6605 48.108 40.7155 48.2324C40.7705 48.3569 40.8503 48.4687 40.9501 48.5613C41.0498 48.6538 41.1674 48.725 41.2956 48.7705C41.4238 48.816 41.5599 48.8349 41.6956 48.826C41.8314 48.817 41.9639 48.7805 42.085 48.7187C42.2062 48.6568 42.3134 48.5708 42.4002 48.4661C43.6561 47.1214 44.5875 45.5072 45.1232 43.7471C46.2842 39.9161 44.9932 36.4691 44.2722 34.5471C43.826 33.3554 43.2605 32.2119 42.5842 31.1341C42.522 31.0088 42.4343 30.8981 42.3266 30.8088C42.219 30.7196 42.0938 30.654 41.9592 30.6162C41.8246 30.5783 41.6836 30.5691 41.5452 30.5892C41.4068 30.6092 41.2742 30.6581 41.1559 30.7326C41.0375 30.807 40.9362 30.9055 40.8582 31.0216C40.7803 31.1377 40.7276 31.2688 40.7035 31.4065C40.6794 31.5443 40.6845 31.6855 40.7184 31.8212C40.7523 31.9568 40.8142 32.0838 40.9002 32.1941C41.5168 33.181 42.0315 34.228 42.4362 35.3191C43.0892 37.0631 44.1832 39.9831 43.2182 43.1671C42.7681 44.6376 41.9876 45.9857 40.9362 47.1081ZM88.2682 82.4641C88.6098 82.2672 88.9093 82.005 89.1495 81.6924C89.3896 81.3797 89.5659 81.0228 89.668 80.6421C89.7702 80.2613 89.7963 79.8641 89.7448 79.4732C89.6934 79.0823 89.5654 78.7054 89.3682 78.3641L88.9442 77.6301L82.2702 48.1651C82.2357 48.0121 82.1658 47.8693 82.066 47.7484C81.9661 47.6274 81.8393 47.5316 81.6956 47.4687C81.5519 47.4058 81.3955 47.3776 81.2389 47.3864C81.0823 47.3951 80.93 47.4406 80.7942 47.5191L65.2062 56.5191C65.0705 56.5974 64.9552 56.7065 64.8694 56.8376C64.7837 56.9687 64.7299 57.1182 64.7125 57.2738C64.6951 57.4295 64.7145 57.5871 64.7692 57.7339C64.8238 57.8808 64.9122 58.0127 65.0272 58.1191L87.2092 78.6311L87.6342 79.3671C87.7665 79.5966 87.8022 79.8694 87.7336 80.1253C87.665 80.3812 87.4976 80.5994 87.2682 80.7321C86.9266 80.9289 86.6272 81.1911 86.387 81.5037C86.1468 81.8164 85.9706 82.1733 85.8684 82.5541C85.7662 82.9348 85.7401 83.332 85.7916 83.7229C85.843 84.1138 85.971 84.4907 86.1682 84.8321L87.1682 86.5641C87.2334 86.6787 87.3206 86.7793 87.4248 86.8601C87.5291 86.9409 87.6482 87.0003 87.7755 87.0349C87.9028 87.0694 88.0356 87.0785 88.1664 87.0615C88.2972 87.0445 88.4233 87.0018 88.5375 86.9358C88.6517 86.8699 88.7518 86.782 88.8319 86.6772C88.912 86.5725 88.9706 86.4529 89.0043 86.3254C89.038 86.1979 89.0462 86.065 89.0283 85.9343C89.0104 85.8037 88.9669 85.6778 88.9002 85.5641L87.9002 83.8321C87.7676 83.6024 87.7317 83.3294 87.8003 83.0733C87.8689 82.8171 88.0365 82.5987 88.2662 82.4661L88.2682 82.4641ZM71.0432 55.4581L69.8622 59.8661L67.3822 57.5731L71.0432 55.4581ZM73.4922 54.0441L77.1052 51.9581L73.9692 63.6641L71.5212 61.4001L73.4922 54.0441ZM79.5552 50.5441L80.6182 49.9301L81.6052 54.2881L78.0762 67.4611L75.6282 65.2001L79.5552 50.5441ZM82.5552 58.4771L83.9552 64.6531L82.1862 71.2591L79.7352 69.0001L82.5552 58.4771ZM83.8432 72.7931L84.9002 68.8421L86.3122 75.0781L83.8432 72.7931ZM71.1282 50.7761C71.2611 51.0011 71.4768 51.1652 71.7292 51.2332C71.9815 51.3012 72.2505 51.2677 72.4784 51.1399C72.7064 51.012 72.8753 50.8 72.9489 50.5492C73.0225 50.2984 72.9949 50.0288 72.8722 49.7981L62.3722 31.0761C62.3097 30.9585 62.2243 30.8546 62.121 30.7704C62.0177 30.6863 61.8987 30.6236 61.7709 30.5861C61.6431 30.5486 61.5091 30.537 61.3767 30.552C61.2444 30.567 61.1164 30.6083 61.0002 30.6734C60.884 30.7386 60.782 30.8263 60.7002 30.9314C60.6184 31.0365 60.5584 31.1569 60.5238 31.2855C60.4891 31.4141 60.4805 31.5483 60.4984 31.6803C60.5164 31.8123 60.5605 31.9394 60.6282 32.0541L71.1282 50.7761ZM65.9002 47.7701C65.6412 47.5001 65.3912 47.2601 65.1412 47.0401C64.6366 46.5958 64.0908 46.2007 63.5112 45.8601C63.283 45.7297 63.0132 45.6922 62.7581 45.7555C62.5029 45.8189 62.282 45.9781 62.1412 46.2001C62.0058 46.4298 61.9666 46.7036 62.0321 46.9621C62.0977 47.2206 62.2627 47.4427 62.4912 47.5801C62.9627 47.8586 63.4076 48.18 63.8202 48.5401C64.0202 48.7201 64.2302 48.9201 64.4402 49.1401C65.4876 50.2631 66.2644 51.6108 66.7112 53.0801C66.7736 53.2859 66.9007 53.4662 67.0736 53.5941C67.2465 53.722 67.4561 53.7907 67.6712 53.7901C67.7731 53.7881 67.8742 53.7712 67.9712 53.7401C68.2221 53.6616 68.4321 53.4875 68.5556 53.2555C68.6791 53.0234 68.7063 52.752 68.6312 52.5001V52.4901C68.0882 50.731 67.1546 49.1175 65.9002 47.7701ZM65.1552 61.0001H61.1802L59.9512 57.2191C59.8855 57.019 59.7582 56.8448 59.5876 56.7213C59.417 56.5978 59.2118 56.5313 59.0012 56.5313C58.7906 56.5313 58.5854 56.5978 58.4148 56.7213C58.2442 56.8448 58.117 57.019 58.0512 57.2191L56.8202 61.0001H52.8452C52.634 61 52.4282 61.0668 52.2574 61.191C52.0865 61.3151 51.9593 61.4901 51.894 61.6909C51.8287 61.8918 51.8287 62.1082 51.8939 62.309C51.9592 62.5099 52.0864 62.6849 52.2572 62.8091L55.4732 65.1461L54.2442 68.9271C54.1789 69.1279 54.1789 69.3443 54.2442 69.5452C54.3094 69.7461 54.4366 69.9211 54.6075 70.0452C54.7784 70.1694 54.9842 70.2362 55.1954 70.2362C55.4066 70.2362 55.6124 70.1692 55.7832 70.0451L59.0002 67.7081L62.2172 70.0451C62.3881 70.1692 62.5938 70.2362 62.805 70.2362C63.0162 70.2362 63.222 70.1694 63.3929 70.0452C63.5638 69.9211 63.691 69.7461 63.7563 69.5452C63.8215 69.3443 63.8215 69.1279 63.7562 68.9271L62.5272 65.1461L65.7432 62.8091C65.9141 62.6849 66.0412 62.5099 66.1065 62.309C66.1717 62.1082 66.1717 61.8918 66.1064 61.6909C66.0411 61.4901 65.9139 61.3151 65.7431 61.191C65.5722 61.0668 65.3664 61 65.1552 61.0001ZM60.4002 65.0731L60.9002 66.6181L59.5862 65.6631C59.4153 65.5388 59.2095 65.4719 58.9982 65.4719C58.7869 65.4719 58.5811 65.5388 58.4102 65.6631L57.0962 66.6181L57.5962 65.0731C57.6614 64.8722 57.6613 64.6558 57.5959 64.4549C57.5305 64.2541 57.4032 64.0791 57.2322 63.9551L55.9222 63.0001H57.5472C57.7584 63 57.9641 62.9332 58.135 62.8091C58.3058 62.6849 58.433 62.5099 58.4982 62.3091L58.9982 60.7641L59.4982 62.3091C59.5635 62.5099 59.6906 62.6849 59.8615 62.8091C60.0323 62.9332 60.238 63 60.4492 63.0001H62.0742L60.7602 63.9551C60.5899 64.0796 60.4634 64.2548 60.3988 64.4556C60.3341 64.6564 60.3346 64.8726 60.4002 65.0731ZM55.5002 39.0001C55.289 39 55.0832 39.0668 54.9124 39.191C54.7415 39.3151 54.6143 39.4901 54.549 39.6909C54.4837 39.8918 54.4837 40.1081 54.5489 40.309C54.6142 40.5099 54.7414 40.6849 54.9122 40.8091L56.4872 41.9541L55.8872 43.8051C55.8219 44.0059 55.8219 44.2223 55.8872 44.4232C55.9524 44.6241 56.0796 44.7991 56.2505 44.9232C56.4214 45.0474 56.6272 45.1142 56.8384 45.1142C57.0496 45.1142 57.2554 45.0472 57.4262 44.9231L59.0002 43.7791L60.5752 44.9231C60.7461 45.0472 60.9518 45.1142 61.163 45.1142C61.3742 45.1142 61.58 45.0474 61.7509 44.9232C61.9218 44.7991 62.049 44.6241 62.1143 44.4232C62.1795 44.2223 62.1795 44.0059 62.1142 43.8051L61.5142 41.9541L63.0892 40.8091C63.2601 40.6849 63.3873 40.5097 63.4526 40.3088C63.5178 40.1078 63.5177 39.8914 63.4523 39.6905C63.3869 39.4896 63.2595 39.3145 63.0885 39.1905C62.9174 39.0665 62.7115 38.9998 62.5002 39.0001H60.5532L59.9532 37.1481C59.8874 36.948 59.7602 36.7738 59.5896 36.6503C59.419 36.5268 59.2138 36.4603 59.0032 36.4603C58.7926 36.4603 58.5874 36.5268 58.4168 36.6503C58.2462 36.7738 58.119 36.948 58.0532 37.1481L57.4472 39.0001H55.5002ZM59.0002 40.5631C59.1302 40.7558 59.3232 40.8972 59.5462 40.9631C59.4042 41.1464 59.3303 41.3733 59.3372 41.6051C59.1194 41.5264 58.881 41.5264 58.6632 41.6051C58.6701 41.3733 58.5962 41.1464 58.4542 40.9631C58.6772 40.8972 58.8702 40.7558 59.0002 40.5631ZM32.4872 42.9541L31.8872 44.8051C31.8219 45.0059 31.8219 45.2223 31.8872 45.4232C31.9524 45.6241 32.0796 45.7991 32.2505 45.9232C32.4214 46.0474 32.6272 46.1142 32.8384 46.1142C33.0496 46.1142 33.2554 46.0472 33.4262 45.9231L35.0002 44.7791L36.5752 45.9231C36.7461 46.0472 36.9518 46.1142 37.163 46.1142C37.3742 46.1142 37.58 46.0474 37.7509 45.9232C37.9218 45.7991 38.049 45.6241 38.1143 45.4232C38.1795 45.2223 38.1795 45.0059 38.1142 44.8051L37.5142 42.9541L39.0892 41.8091C39.2601 41.6849 39.3873 41.5097 39.4526 41.3088C39.5178 41.1078 39.5177 40.8914 39.4523 40.6905C39.3869 40.4896 39.2595 40.3145 39.0885 40.1905C38.9174 40.0665 38.7115 39.9998 38.5002 40.0001H36.5532L35.9532 38.1481C35.8875 37.948 35.7602 37.7738 35.5896 37.6503C35.419 37.5268 35.2138 37.4603 35.0032 37.4603C34.7926 37.4603 34.5874 37.5268 34.4168 37.6503C34.2462 37.7738 34.119 37.948 34.0532 38.1481L33.4472 40.0001H31.5002C31.289 40 31.0832 40.0668 30.9124 40.191C30.7415 40.3151 30.6143 40.4901 30.549 40.6909C30.4837 40.8918 30.4837 41.1081 30.5489 41.309C30.6142 41.5099 30.7414 41.6849 30.9122 41.8091L32.4872 42.9541ZM35.0002 41.5631C35.1302 41.7558 35.3232 41.8972 35.5462 41.9631C35.4042 42.1464 35.3303 42.3733 35.3372 42.6051C35.1194 42.5264 34.881 42.5264 34.6632 42.6051C34.6701 42.3733 34.5962 42.1464 34.4542 41.9631C34.6772 41.8972 34.8702 41.7558 35.0002 41.5631ZM80.4872 42.9541L79.8872 44.8051C79.8219 45.0059 79.8219 45.2223 79.8872 45.4232C79.9524 45.6241 80.0796 45.7991 80.2505 45.9232C80.4214 46.0474 80.6272 46.1142 80.8384 46.1142C81.0496 46.1142 81.2554 46.0472 81.4262 45.9231L83.0002 44.7791L84.5752 45.9231C84.7461 46.0472 84.9518 46.1142 85.163 46.1142C85.3742 46.1142 85.58 46.0474 85.7509 45.9232C85.9218 45.7991 86.049 45.6241 86.1143 45.4232C86.1795 45.2223 86.1795 45.0059 86.1142 44.8051L85.5142 42.9541L87.0892 41.8091C87.2601 41.6849 87.3873 41.5097 87.4526 41.3088C87.5178 41.1078 87.5177 40.8914 87.4523 40.6905C87.3869 40.4896 87.2595 40.3145 87.0885 40.1905C86.9174 40.0665 86.7115 39.9998 86.5002 40.0001H84.5532L83.9532 38.1481C83.8875 37.948 83.7602 37.7738 83.5896 37.6503C83.419 37.5268 83.2138 37.4603 83.0032 37.4603C82.7926 37.4603 82.5874 37.5268 82.4168 37.6503C82.2462 37.7738 82.119 37.948 82.0532 38.1481L81.4472 40.0001H79.5002C79.289 40 79.0832 40.0668 78.9124 40.191C78.7415 40.3151 78.6143 40.4901 78.549 40.6909C78.4837 40.8918 78.4837 41.1081 78.5489 41.309C78.6142 41.5099 78.7414 41.6849 78.9122 41.8091L80.4872 42.9541ZM83.0002 41.5631C83.1302 41.7558 83.3232 41.8972 83.5462 41.9631C83.4042 42.1464 83.3303 42.3733 83.3372 42.6051C83.1194 42.5264 82.881 42.5264 82.6632 42.6051C82.6701 42.3733 82.5962 42.1464 82.4542 41.9631C82.6772 41.8972 82.8702 41.7558 83.0002 41.5631ZM75.6002 48.4661C75.7814 48.6564 76.0301 48.7677 76.2928 48.7761C76.5554 48.7844 76.8107 48.6891 77.0036 48.5107C77.1965 48.3323 77.3114 48.0851 77.3235 47.8226C77.3356 47.5601 77.2439 47.3035 77.0682 47.1081C76.0187 45.9852 75.2398 44.6371 74.7912 43.1671C73.8262 39.9831 74.9202 37.0671 75.6012 35.2461C76 34.1806 76.5052 33.1581 77.1092 32.1941C77.1839 32.0829 77.2354 31.9579 77.2609 31.8264C77.2863 31.6949 77.2851 31.5597 77.2572 31.4287C77.2294 31.2977 77.1755 31.1736 77.0989 31.0639C77.0222 30.9541 76.9242 30.8608 76.8108 30.7896C76.6974 30.7184 76.5709 30.6707 76.4387 30.6493C76.3065 30.628 76.1713 30.6334 76.0413 30.6652C75.9112 30.6971 75.7888 30.7547 75.6815 30.8347C75.5741 30.9147 75.4839 31.0155 75.4162 31.1311C74.7271 32.232 74.1522 33.4004 73.7002 34.6181C73.0072 36.4691 71.7162 39.9181 72.8772 43.7471C73.4129 45.5072 74.3443 47.1214 75.6002 48.4661Z" fill="#142030"/>
</svg>
