<svg width="117" height="117" viewBox="0 0 117 117" fill="none" xmlns="http://www.w3.org/2000/svg">
<circle cx="58.5" cy="58.5" r="58.5" fill="#142030" fill-opacity="0.2"/>
<path d="M89.6667 64H82.3333V63.3333C82.3333 60.68 80.9067 58.36 78.8 57.0666C79.7467 56.1066 80.3333 54.7866 80.3333 53.3333C80.3333 50.3866 77.9467 48 75 48C72.0533 48 69.6667 50.3866 69.6667 53.3333C69.6667 54.7866 70.2533 56.1066 71.2 57.0666C69.08 58.36 67.6667 60.68 67.6667 63.3333V64H60.3333C59.6 64 59 64.6 59 65.3333C59 66.0666 59.6 66.6666 60.3333 66.6666H61.6667V76C61.6667 76.7333 62.2667 77.3333 63 77.3333C63.7333 77.3333 64.3333 76.7333 64.3333 76H85.6667C85.6667 76.7333 86.2667 77.3333 87 77.3333C87.7333 77.3333 88.3333 76.7333 88.3333 76V66.6666H89.6667C90.4 66.6666 91 66.0666 91 65.3333C91 64.6 90.4 64 89.6667 64ZM75 50.6666C76.4667 50.6666 77.6667 51.8666 77.6667 53.3333C77.6667 54.8 76.4667 56 75 56C73.5333 56 72.3333 54.8 72.3333 53.3333C72.3333 51.8666 73.5333 50.6666 75 50.6666ZM70.3333 63.3333C70.3333 60.76 72.4267 58.6666 75 58.6666C77.5733 58.6666 79.6667 60.76 79.6667 63.3333V64H70.3333V63.3333ZM85.6667 73.3333H64.3333V66.6666H69H81H85.6667V73.3333ZM36.3333 60H52.3333C53.0667 60 53.6667 59.4 53.6667 58.6666V57.8533L59.9067 59.9333C60.04 59.9866 60.1867 60 60.3333 60C60.6133 60 60.88 59.92 61.1067 59.7466C61.4667 59.4933 61.6667 59.0933 61.6667 58.6666V48C61.6667 47.5733 61.4667 47.1733 61.1067 46.92C60.76 46.6666 60.3067 46.6 59.9067 46.7333L53.6667 48.8133V48C53.6667 47.2666 53.0667 46.6666 52.3333 46.6666H36.3333C35.6 46.6666 35 47.2666 35 48V58.6666C35 59.4 35.6 60 36.3333 60ZM53.6667 51.6266L59 49.8533V56.8133L53.6667 55.04V51.6266ZM37.6667 49.3333H51V57.3333H37.6667V49.3333Z" fill="#142030"/>
</svg>
