<svg width="117" height="117" viewBox="0 0 117 117" fill="none" xmlns="http://www.w3.org/2000/svg">
<circle cx="58.5" cy="58.5" r="58.5" fill="#142030" fill-opacity="0.2"/>
<path d="M90.976 84.808L90.752 83.522C90.6534 82.9551 90.3577 82.4414 89.9171 82.0713C89.4765 81.7012 88.9194 81.4987 88.344 81.4993H87.1441C88.0954 80.2993 88.98 79.4493 88.856 77.826C86.6527 47.5507 87.3894 57.5767 86.1094 40.0327C86.5653 39.9521 86.9783 39.7135 87.2758 39.3587C87.5732 39.0039 87.7362 38.5556 87.736 38.0927V37.726C87.7368 37.2649 87.5757 36.8182 87.2809 36.4637C86.9861 36.1092 86.5762 35.8693 86.1227 35.786C86.6228 35.2273 86.9505 34.5359 87.0662 33.7951C87.1819 33.0542 87.0807 32.2958 86.7747 31.6112C86.4688 30.9267 85.9712 30.3454 85.3421 29.9375C84.7129 29.5296 83.9792 29.3125 83.2294 29.3125C82.4796 29.3125 81.7458 29.5296 81.1167 29.9375C80.4876 30.3454 79.99 30.9267 79.6841 31.6112C79.3781 32.2958 79.2769 33.0542 79.3926 33.7951C79.5083 34.5359 79.8359 35.2273 80.336 35.786C79.8838 35.8708 79.4756 36.1113 79.1821 36.4657C78.8887 36.82 78.7285 37.2659 78.7294 37.726V38.0927C78.7282 38.5559 78.8907 39.0047 79.1884 39.3597C79.4861 39.7147 79.8996 39.9531 80.356 40.0327L80.1494 42.8727C79.6422 42.6483 79.0822 42.5706 78.5331 42.6483C77.984 42.7261 77.4677 42.9563 77.0427 43.3127C72.2584 47.2801 66.3124 49.5821 60.1038 49.8708C53.8951 50.1595 47.7612 48.4191 42.6294 44.9127C42.6276 44.9127 42.6259 44.912 42.6247 44.9107C42.6234 44.9095 42.6227 44.9078 42.6227 44.906C41.887 44.4092 41.1772 43.8752 40.4961 43.306C40.1337 43.0039 39.7049 42.7921 39.2449 42.6878C38.7848 42.5835 38.3066 42.5897 37.8494 42.706L37.6494 40.0327C38.1058 39.9531 38.5194 39.7147 38.817 39.3597C39.1147 39.0047 39.2773 38.5559 39.2761 38.0927V37.726C39.2768 37.2655 39.1163 36.8193 38.8223 36.4649C38.5283 36.1105 38.1194 35.8703 37.6667 35.786C38.1668 35.2273 38.4945 34.5359 38.6102 33.7951C38.7259 33.0542 38.6247 32.2958 38.3187 31.6112C38.0128 30.9267 37.5152 30.3454 36.8861 29.9375C36.2569 29.5296 35.5232 29.3125 34.7734 29.3125C34.0236 29.3125 33.2898 29.5296 32.6607 29.9375C32.0316 30.3454 31.534 30.9267 31.2281 31.6112C30.9221 32.2958 30.8209 33.0542 30.9366 33.7951C31.0523 34.5359 31.3799 35.2273 31.8801 35.786C31.4266 35.8693 31.0167 36.1092 30.7219 36.4637C30.4271 36.8182 30.266 37.2649 30.2667 37.726V38.0927C30.2666 38.5556 30.4295 39.0039 30.727 39.3587C31.0245 39.7135 31.4375 39.9521 31.8934 40.0327C30.5541 58.428 31.3947 46.9467 29.1467 77.826C29.0227 79.4487 29.9167 80.3073 30.8594 81.4993H29.6594C29.0833 81.4979 28.5254 81.7002 28.0841 82.0705C27.6428 82.4407 27.3467 82.9551 27.2481 83.5227L27.0241 84.808C26.984 85.0381 26.9946 85.2742 27.0553 85.4998C27.1159 85.7254 27.2251 85.935 27.3752 86.114C27.5253 86.293 27.7127 86.437 27.9243 86.5361C28.1358 86.6351 28.3665 86.6867 28.6001 86.6873H40.9334C41.1673 86.6873 41.3984 86.6361 41.6105 86.5373C41.8225 86.4385 42.0104 86.2946 42.1609 86.1155C42.3115 85.9365 42.421 85.7266 42.4819 85.5008C42.5428 85.2749 42.5535 85.0384 42.5134 84.808L42.2894 83.5227C42.191 82.9556 41.8954 82.4416 41.4548 82.0714C41.0142 81.7012 40.4569 81.4985 39.8814 81.4993H38.6814C39.6447 80.2813 40.5061 79.464 40.3934 77.826C38.7007 54.5733 39.1407 60.632 38.3201 49.2793C38.2947 48.9153 38.0301 49 40.1801 50.3727C46.1448 54.1852 53.1376 56.0714 60.2105 55.7756C67.2835 55.4799 74.0944 53.0165 79.7201 48.7193C79.3494 53.9113 78.1007 71.0347 77.6067 77.826C77.4947 79.4573 78.3634 80.2927 79.3194 81.4993H78.1194C77.5439 81.4984 76.9867 81.701 76.5462 82.0713C76.1056 82.4415 75.8102 82.9556 75.712 83.5227L75.4874 84.808C75.4472 85.0384 75.458 85.2749 75.5188 85.5008C75.5797 85.7266 75.6893 85.9365 75.8398 86.1155C75.9904 86.2946 76.1782 86.4385 76.3903 86.5373C76.6024 86.6361 76.8334 86.6873 77.0674 86.6873H89.4C89.6336 86.6867 89.8643 86.6351 90.0758 86.5361C90.2874 86.437 90.4748 86.293 90.6249 86.114C90.775 85.935 90.8842 85.7254 90.9448 85.4998C91.0055 85.2742 91.0161 85.0381 90.976 84.808ZM81.1467 47.5333C81.583 47.0497 81.8455 46.4343 81.8926 45.7846C81.9397 45.135 81.7687 44.4882 81.4067 43.9467L81.6867 40.0667H84.7734L85.4 48.66H81.06L81.1467 47.5333ZM80.9667 49.9933H85.4934L86.0467 57.6067H80.4134L80.9667 49.9933ZM83.2267 30.6467C83.7317 30.6467 84.2254 30.7964 84.6453 31.077C85.0652 31.3575 85.3924 31.7563 85.5857 32.2229C85.7789 32.6894 85.8295 33.2028 85.731 33.6981C85.6325 34.1934 85.3893 34.6484 85.0322 35.0055C84.6751 35.3626 84.2201 35.6057 83.7248 35.7043C83.2295 35.8028 82.7162 35.7522 82.2496 35.559C81.783 35.3657 81.3843 35.0384 81.1037 34.6185C80.8231 34.1986 80.6734 33.705 80.6734 33.2C80.6748 32.5232 80.9442 31.8745 81.4228 31.3958C81.9013 30.9172 82.5499 30.6482 83.2267 30.6467ZM80.06 38.0933V37.7267C80.0597 37.558 80.1261 37.396 80.2447 37.2761C80.3634 37.1562 80.5247 37.0881 80.6934 37.0867H85.7667C85.9354 37.0881 86.0967 37.1562 86.2153 37.2761C86.334 37.396 86.4004 37.558 86.4 37.7267V38.0933C86.4004 38.262 86.334 38.424 86.2153 38.5439C86.0967 38.6638 85.9354 38.7319 85.7667 38.7333H80.6934C80.5246 38.7319 80.3632 38.6637 80.2445 38.5437C80.1258 38.4236 80.0595 38.2621 80.06 38.0933ZM36.8867 47.9793L36.9401 48.6593H32.6001L33.2267 40.0667H36.3134L36.5601 43.4267C36.244 43.7275 35.9984 44.0945 35.8409 44.5015C35.6835 44.9084 35.618 45.3452 35.6492 45.7804C35.6804 46.2156 35.8076 46.6385 36.0215 47.0188C36.2355 47.3991 36.531 47.7267 36.8867 47.9793ZM32.5067 49.9927H37.0334L37.5867 57.606H31.9534L32.5067 49.9927ZM34.7734 30.646C35.2781 30.6473 35.7711 30.7982 36.1901 31.0795C36.6091 31.3608 36.9353 31.76 37.1275 32.2267C37.3198 32.6933 37.3694 33.2064 37.2702 33.7013C37.171 34.1961 36.9274 34.6505 36.5701 35.0069C36.2128 35.3634 35.7579 35.6059 35.2628 35.704C34.7677 35.802 34.2547 35.7512 33.7885 35.5578C33.3223 35.3645 32.9239 35.0373 32.6436 34.6177C32.3632 34.198 32.2135 33.7047 32.2134 33.2C32.2144 32.5219 32.4847 31.872 32.9647 31.3931C33.4448 30.9142 34.0953 30.6455 34.7734 30.646ZM31.6001 38.0927V37.726C31.5997 37.5573 31.6661 37.3953 31.7848 37.2754C31.9034 37.1555 32.0647 37.0874 32.2334 37.086H37.3067C37.4754 37.0874 37.6367 37.1555 37.7554 37.2754C37.874 37.3953 37.9404 37.5573 37.9401 37.726V38.0927C37.9404 38.2613 37.874 38.4233 37.7554 38.5432C37.6367 38.6632 37.4754 38.7312 37.3067 38.7327H32.2334C32.0647 38.7312 31.9034 38.6632 31.7848 38.5432C31.6661 38.4233 31.5997 38.2613 31.6001 38.0927ZM40.9781 83.752C41.2227 85.152 41.2514 85.1313 41.1434 85.258C41.0247 85.3993 41.7681 85.354 28.6034 85.354C28.5637 85.3547 28.5244 85.3465 28.4883 85.3301C28.4522 85.3137 28.4202 85.2895 28.3947 85.2591C28.3691 85.2288 28.3507 85.1931 28.3406 85.1548C28.3306 85.1164 28.3293 85.0763 28.3367 85.0373L28.5607 83.7527C28.6052 83.4949 28.7395 83.2612 28.9397 83.0928C29.1399 82.9244 29.3931 82.8323 29.6547 82.8327H39.8841C40.1455 82.8323 40.3987 82.9243 40.5989 83.0926C40.7991 83.2608 40.9334 83.4943 40.9781 83.752ZM39.0601 77.9193C39.0995 78.4726 38.9333 79.021 38.5934 79.4593L36.9801 81.4993H32.5601L30.9467 79.4667C30.6075 79.0254 30.4415 78.4752 30.4801 77.92L31.8601 58.94H37.6801L39.0601 77.9193ZM38.1801 47.3127C37.5487 46.8193 37.0167 46.4647 36.9801 45.666C36.9586 45.3489 37.0314 45.0325 37.1891 44.7565C37.3469 44.4806 37.5826 44.2574 37.8668 44.115C38.1509 43.9725 38.4708 43.9172 38.7863 43.9559C39.1018 43.9947 39.3988 44.1257 39.6401 44.3327C40.2134 44.8127 40.8201 45.2793 41.4334 45.7127L40.2201 48.8C39.5334 48.346 38.8467 47.846 38.1801 47.3127ZM76.0734 49.6C71.8611 52.173 67.1289 53.7762 62.2201 54.2933C56.7952 54.8592 51.3145 54.0831 46.2601 52.0333C44.5597 51.341 42.9206 50.507 41.3601 49.54L42.5667 46.4733C42.5919 46.4913 42.6187 46.507 42.6467 46.52C44.5682 47.7616 46.629 48.773 48.7867 49.5333C51.2763 50.4059 53.8695 50.9483 56.5001 51.1467C58.2742 51.2824 60.057 51.2579 61.8267 51.0733C62.0501 51.0733 63.3534 50.8867 63.3601 50.8867C67.5011 50.2587 71.4604 48.754 74.9734 46.4733L76.1667 49.54C76.1334 49.5593 76.1067 49.5793 76.0734 49.6ZM77.3134 48.8067L76.1067 45.7067C76.7267 45.2733 77.3267 44.8133 77.9 44.3333C78.214 44.0696 78.6162 43.9346 79.0257 43.9556C79.4352 43.9767 79.8215 44.1521 80.1067 44.4467C80.261 44.6031 80.3814 44.7897 80.4604 44.9947C80.5395 45.1998 80.5754 45.4189 80.566 45.6384C80.5566 45.858 80.5021 46.0732 80.4059 46.2708C80.3097 46.4683 80.1738 46.6439 80.0067 46.7867C79.1451 47.5067 78.2461 48.1814 77.3134 48.8067ZM79.4067 79.4667C79.0675 79.0254 78.9015 78.4752 78.9401 77.92L80.32 58.94H86.14L87.52 77.92C87.5595 78.4733 87.3933 79.0217 87.0534 79.46L85.44 81.5H81.02L79.4067 79.4667ZM89.6 85.258C89.482 85.3993 90.2254 85.354 77.0614 85.354C77.0219 85.3541 76.9829 85.3455 76.9471 85.3289C76.9113 85.3123 76.8795 85.2881 76.8541 85.2579C76.8287 85.2277 76.8102 85.1923 76.7999 85.1542C76.7897 85.1161 76.7879 85.0762 76.7947 85.0373L77.0194 83.752C77.064 83.4943 77.1983 83.2608 77.3985 83.0926C77.5987 82.9243 77.8519 82.8323 78.1134 82.8327H88.344C88.6055 82.8323 88.8587 82.9243 89.0589 83.0926C89.2591 83.2608 89.3934 83.4943 89.438 83.752C89.682 85.152 89.7114 85.1333 89.6 85.258Z" fill="#142030"/>
</svg>
